<svg width="212" height="111" viewBox="0 0 212 111" fill="none" xmlns="http://www.w3.org/2000/svg">
<path d="M212 0.267749C173.337 12.0236 134.675 23.7803 95.7905 35.6035C100.28 39.8636 101.586 45.1642 101.601 50.9066C101.615 56.6705 100.464 62.0241 95.6645 66.1854C134.459 81.0486 173.118 95.8596 211.777 110.672C211.762 110.761 211.748 110.851 211.734 110.94C211.322 110.961 210.911 110.998 210.5 110.998C178.947 111.001 147.395 111.007 115.842 110.964C115.049 110.963 114.123 110.585 113.485 110.093C93.1805 94.4196 72.9028 78.7107 52.6207 63.0081C52.2508 62.7217 51.8629 62.4586 51.3076 62.0573V110.879H0V0.0845968H51.2068V36.9619C51.8683 36.6001 52.3174 36.3693 52.7521 36.1144C72.8488 24.2993 92.9411 12.4779 113.055 0.693308C113.767 0.275829 114.693 0.0298307 115.52 0.0289329C147.248 -0.00428581 178.978 0.000203215 210.706 0.000203215H211.959C211.973 0.0890858 211.987 0.178866 212 0.267749ZM90.9153 64.3665V37.0867C77.7268 41.0963 64.6553 45.0709 51.214 49.1568C64.6436 54.3021 77.6944 59.3011 90.9153 64.3656V64.3665Z" fill="#FEFEFE"/>
</svg>
