<svg width="491" height="241" viewBox="0 0 491 241" fill="none" xmlns="http://www.w3.org/2000/svg">
<path d="M491 0.581327C401.456 26.1052 311.911 51.631 221.854 77.3011C232.251 86.5504 235.278 98.059 235.311 110.527C235.345 123.041 232.679 134.664 221.563 143.699C311.411 175.97 400.947 208.127 490.483 240.286C490.45 240.481 490.416 240.676 490.383 240.869C489.43 240.914 488.478 240.996 487.525 240.996C414.448 241.002 341.373 241.015 268.295 240.922C266.459 240.92 264.314 240.099 262.836 239.029C215.81 205 168.846 170.894 121.871 136.801C121.015 136.179 120.116 135.608 118.83 134.737V240.737H0V0.183674H118.597V80.2503C120.129 79.4648 121.169 78.9638 122.176 78.4102C168.721 52.7577 215.255 27.0915 261.84 1.50529C263.488 0.59887 265.633 0.0647674 267.549 0.0628182C341.033 -0.00930519 414.519 0.000441213 488.003 0.000441213H490.906C490.937 0.19342 490.969 0.388348 491 0.581327ZM210.563 139.75V80.5213C180.018 89.2268 149.744 97.8562 118.613 106.727C149.717 117.899 179.943 128.752 210.563 139.748V139.75Z" fill="black"/>
</svg>
